#!OML:ASF F:\twosubjects\two\wednesday\Session 1\rory1.ASF
:FULLY-SPECIFIED
:DEGREES
347
root 14.4477 16.7122 -11.6864 -467.426 -79.4318 111.53
lowerback 20.1467 2.21329 -11.2584
upperback 5.53084 -0.164264 -4.03898
thorax -5.22638 -0.234069 2.06664
lowerneck -7.99192 -9.83298 -11.7801
upperneck -0.957974 -12.8268 17.8707
head 3.02942 -6.12671 6.55107
rclavicle -5.56597e-015 3.37934e-014
rhumerus -38.897 -0.923574 -55.7022
rradius 47.4583
rwrist -17.0287
rhand -21.4127 32.1839
rfingers 7.12502
rthumb 4.97583 2.26236
lclavicle -5.56597e-015 3.37934e-014
lhumerus -19.8285 -10.3562 50.8402
lradius 40.4225
lwrist 17.8323
lhand -25.7772 22.4936
lfingers 7.12502
lthumb 0.760896 52.4719
rfemur -74.5563 -26.7388 13.2706
rtibia 129.198
rfoot -17.5188 -3.9238
rtoes 5.2679
lfemur -10.5662 -2.99812 -10.4221
ltibia 36.8933
lfoot -23.627 -0.0888652
ltoes -33.8209
348
root 14.3256 16.887 -11.7944 -470.386 -80.1634 114.786
lowerback 19.8896 1.82042 -10.7148
upperback 5.45871 -0.490612 -3.7832
thorax -5.1378 -0.386577 2.12218
lowerneck -8.74962 -9.36782 -11.0781
upperneck -0.223307 -12.2349 17.1068
head 3.17852 -5.79007 6.22081
rclavicle -1.59028e-014 -4.17448e-014
rhumerus -39.5743 -0.812344 -55.9521
rradius 46.2996
rwrist -16.3802
rhand -21.1818 33.4716
rfingers 7.12502
rthumb 5.19878 3.55534
lclavicle -1.59028e-014 -4.17448e-014
lhumerus -19.5577 -9.56505 51.3844
lradius 42.201
lwrist 18.0304
lhand -26.4624 23.1105
lfingers 7.12502
lthumb 0.09913 53.0902
rfemur -76.234 -25.7843 14.6447
rtibia 128.003
rfoot -16.452 -6.77134
rtoes -0.276898
lfemur -8.9012 -5.07551 -9.60418
ltibia 34.2351
lfoot -22.1579 2.9641
ltoes -35.9635
349
root 14.2101 17.061 -11.9158 -475.22 -80.74 119.79
lowerback 19.775 1.64269 -10.2858
upperback 5.42786 -0.595885 -3.58651
thorax -5.10399 -0.435019 2.12151
lowerneck -9.25138 -8.88534 -10.2046
upperneck 0.217265 -11.6342 16.3451
head 3.19832 -5.47301 5.88074
rclavicle -1.63003e-014 -9.93923e-014
rhumerus -40.3962 -1.61954 -56.1461
rradius 44.9648
rwrist -15.2287
rhand -20.6247 34.6488
rfingers 7.12502
rthumb 5.7367 4.74647
lclavicle -1.63003e-014 -9.93923e-014
lhumerus -18.934 -8.946 51.7922
lradius 43.8107
lwrist 18.2553
lhand -26.8706 23.7188
lfingers 7.12502
lthumb -0.295089 53.6983
rfemur -77.7764 -24.4735 15.778
rtibia 126.802
rfoot -15.4879 -8.73894
rtoes 0.269963
lfemur -7.31992 -7.33022 -8.90241
ltibia 32.1361
lfoot -20.8607 5.91552
ltoes -34.1729
350
root 14.0912 17.2334 -12.0435 -481.17 -81.4409 125.901
lowerback 19.6409 1.44683 -9.75258
upperback 5.4124 -0.682614 -3.20717
thorax -5.0442 -0.473877 2.25388
lowerneck -9.5722 -8.40132 -9.59312
upperneck 0.552798 -11.0157 15.7085
head 3.18951 -5.15616 5.63052
rclavicle -4.11484e-014 -5.1684e-014
rhumerus -41.1414 -2.18296 -56.1046
rradius 43.7347
rwrist -14.3762
rhand -19.9929 34.599
rfingers 7.12502
rthumb 6.3467 4.71405
lclavicle -4.11484e-014 -5.1684e-014
lhumerus -18.0155 -8.18409 52.1598
lradius 44.9058
lwrist 18.0936
lhand -27.194 24.2316
lfingers 7.12502
lthumb -0.607469 54.2105
rfemur -79.1654 -23.4055 17.1276
rtibia 125.467
rfoot -14.7274 -10.2573
rtoes 3.20526
lfemur -5.97567 -9.19683 -8.01043
ltibia 30.4333
lfoot -19.1126 9.13872
ltoes -32.3297
351
root 13.9823 17.3705 -12.1656 -488.085 -81.6987 133.133
lowerback 19.4938 1.24355 -9.72858
upperback 5.24717 -0.882207 -2.78528
thorax -5.11608 -0.552937 2.74101
lowerneck -9.99541 -7.76516 -8.82274
upperneck 1.16426 -10.2096 14.7535
head 3.23643 -4.7411 5.26566
rclavicle 2.5842e-014 4.53229e-014
rhumerus -41.5963 -1.24491 -56.257
rradius 42.4831
rwrist -14.3691
rhand -19.839 34.2577
rfingers 7.12502
rthumb 6.49526 4.37729
lclavicle 2.5842e-014 4.53229e-014
lhumerus -16.8285 -6.89249 52.145
lradius 45.0353
lwrist 17.5565
lhand -27.3312 24.4667
lfingers 7.12502
lthumb -0.739924 54.4452
rfemur -80.9927 -23.1673 18.4823
rtibia 124.161
rfoot -13.6568 -11.2566
rtoes 6.16083
lfemur -5.09861 -10.2207 -7.41797
ltibia 29.3057
lfoot -16.642 12.6518
ltoes -31.7439
352
root 13.866 17.5638 -12.3081 -495.833 -81.9802 141.35
lowerback 19.1379 0.94654 -9.59337
upperback 5.10329 -1.14735 -2.31131
thorax -5.04435 -0.669594 3.2333
lowerneck -10.2931 -7.09729 -8.02045
upperneck 1.51039 -9.35047 13.7896
head 3.19191 -4.31633 4.90304
rclavicle -2.46493e-014 1.03368e-014
rhumerus -42.0304 -0.186442 -56.591
rradius 41.2112
rwrist -14.2426
rhand -20.5895 34.2315
rfingers 7.12502
rthumb 5.77073 4.33008
lclavicle -2.46493e-014 1.03368e-014
lhumerus -15.3556 -6.12415 51.6601
lradius 44.9856
lwrist 17.9918
lhand -27.1036 24.5663
lfingers 7.12502
lthumb -0.520159 54.5454
rfemur -81.5259 -20.3716 19.3935
rtibia 122.172
rfoot -12.7524 -13.9574
rtoes 8.1479
lfemur -4.65154 -10.336 -6.5516
ltibia 28.6215
lfoot -14.353 15.1257
ltoes -27.0968
353
root 13.7602 17.7281 -12.4456 -502.224 -81.6955 148.266
lowerback 18.6511 0.814842 -9.77266
upperback 5.06397 -1.26005 -1.99699
thorax -4.8009 -0.727556 3.68951
lowerneck -10.7142 -6.55954 -7.5266
upperneck 1.80576 -8.64759 13.1614
head 3.21607 -3.9606 4.67516
rclavicle -2.06736e-014 -2.70347e-014
rhumerus -42.4224 -0.223648 -56.638
rradius 39.8392
rwrist -13.3134
rhand -21.6222 34.4148
rfingers 7.12502
rthumb 4.77358 4.48861
lclavicle -2.06736e-014 -2.70347e-014
lhumerus -16.3572 0.367315 54.8142
lradius 46.4293
lwrist 11.8361
lhand -27.2212 23.0015
lfingers 7.12502
lthumb -0.63373 52.9803
rfemur -82.349 -18.1504 20.0069
rtibia 120.239
rfoot -12.0752 -16.0434
rtoes 10.7381
lfemur -4.57784 -9.97625 -6.24763
ltibia 28.5103
lfoot -12.9161 17.177
ltoes -18.3149
